<svg width="456" height="374" viewBox="0 0 456 374" fill="none" xmlns="http://www.w3.org/2000/svg">
<g filter="url(#filter0_d_61_698)">
<mask id="path-1-inside-1_61_698" fill="white">
<path fill-rule="evenodd" clip-rule="evenodd" d="M239.741 30.0017C191.153 30.0017 150.993 67.5842 144.598 116.36C131.432 122.877 120.388 134.027 112.995 148.038C110.096 147.358 107.096 147.002 104.025 147.002C79.1569 147.002 58.9977 170.372 58.9977 199.201C58.9977 228.03 79.1569 251.4 104.025 251.4C111.099 251.4 117.792 249.509 123.748 246.139C136.094 260.034 152.95 268.592 171.534 268.592C179.397 268.592 186.95 267.06 193.983 264.241C207.928 277.824 225.902 286.002 245.519 286.002C271.933 286.002 295.367 271.176 310 248.292C318.289 253.427 327.745 256.335 337.782 256.335C370.572 256.335 397.153 225.294 397.153 187.002C397.153 148.71 370.572 117.668 337.782 117.668C336.868 117.668 335.959 117.692 335.056 117.74C329.245 68.2947 288.787 30.0017 239.741 30.0017Z"/>
</mask>
<path fill-rule="evenodd" clip-rule="evenodd" d="M239.741 30.0017C191.153 30.0017 150.993 67.5842 144.598 116.36C131.432 122.877 120.388 134.027 112.995 148.038C110.096 147.358 107.096 147.002 104.025 147.002C79.1569 147.002 58.9977 170.372 58.9977 199.201C58.9977 228.03 79.1569 251.4 104.025 251.4C111.099 251.4 117.792 249.509 123.748 246.139C136.094 260.034 152.95 268.592 171.534 268.592C179.397 268.592 186.95 267.06 193.983 264.241C207.928 277.824 225.902 286.002 245.519 286.002C271.933 286.002 295.367 271.176 310 248.292C318.289 253.427 327.745 256.335 337.782 256.335C370.572 256.335 397.153 225.294 397.153 187.002C397.153 148.71 370.572 117.668 337.782 117.668C336.868 117.668 335.959 117.692 335.056 117.74C329.245 68.2947 288.787 30.0017 239.741 30.0017Z" fill="url(#paint0_linear_61_698)" fill-opacity="0.5"/>
<path d="M144.598 116.36L147.573 116.75L147.365 118.338L145.929 119.049L144.598 116.36ZM112.995 148.038L115.648 149.438L114.567 151.487L112.31 150.958L112.995 148.038ZM123.748 246.139L122.271 243.528L124.381 242.334L125.991 244.146L123.748 246.139ZM193.983 264.241L192.866 261.456L194.678 260.73L196.076 262.092L193.983 264.241ZM310 248.292L307.473 246.676L309.066 244.185L311.58 245.742L310 248.292ZM335.056 117.74L335.214 120.736L332.405 120.884L332.076 118.09L335.056 117.74ZM141.624 115.97C148.199 65.8151 189.535 27.0017 239.741 27.0017V33.0017C192.772 33.0017 153.787 69.3533 147.573 116.75L141.624 115.97ZM110.341 146.638C117.998 132.126 129.481 120.496 143.268 113.672L145.929 119.049C133.384 125.259 122.777 135.928 115.648 149.438L110.341 146.638ZM112.31 150.958C109.633 150.331 106.863 150.002 104.025 150.002V144.002C107.329 144.002 110.559 144.385 113.679 145.117L112.31 150.958ZM104.025 150.002C81.2146 150.002 61.9977 171.597 61.9977 199.201H55.9977C55.9977 169.147 77.0992 144.002 104.025 144.002V150.002ZM61.9977 199.201C61.9977 226.805 81.2146 248.4 104.025 248.4V254.4C77.0992 254.4 55.9977 229.255 55.9977 199.201H61.9977ZM104.025 248.4C110.552 248.4 116.74 246.658 122.271 243.528L125.226 248.75C118.844 252.361 111.645 254.4 104.025 254.4V248.4ZM171.534 271.592C151.986 271.592 134.345 262.583 121.506 248.132L125.991 244.146C137.842 257.486 153.914 265.592 171.534 265.592V271.592ZM195.099 267.025C187.722 269.983 179.791 271.592 171.534 271.592V265.592C179.002 265.592 186.177 264.138 192.866 261.456L195.099 267.025ZM245.519 289.002C225.034 289.002 206.33 280.455 191.89 266.39L196.076 262.092C209.527 275.193 226.771 283.002 245.519 283.002V289.002ZM312.528 249.908C297.439 273.504 273.122 289.002 245.519 289.002V283.002C270.743 283.002 293.295 268.847 307.473 246.676L312.528 249.908ZM337.782 259.335C327.151 259.335 317.153 256.252 308.42 250.843L311.58 245.742C319.426 250.602 328.339 253.335 337.782 253.335V259.335ZM400.153 187.002C400.153 226.497 372.648 259.335 337.782 259.335V253.335C368.495 253.335 394.153 224.09 394.153 187.002H400.153ZM337.782 114.668C372.648 114.668 400.153 147.506 400.153 187.002H394.153C394.153 149.913 368.495 120.668 337.782 120.668V114.668ZM334.898 114.744C335.854 114.694 336.815 114.668 337.782 114.668V120.668C336.921 120.668 336.065 120.691 335.214 120.736L334.898 114.744ZM239.741 27.0017C290.421 27.0017 332.06 66.5482 338.035 117.39L332.076 118.09C326.429 70.0413 287.153 33.0017 239.741 33.0017V27.0017Z" fill="white" fill-opacity="0.5" mask="url(#path-1-inside-1_61_698)"/>
</g>
<defs>
<filter id="filter0_d_61_698" x="0.414356" y="0.709864" width="455.323" height="373.167" filterUnits="userSpaceOnUse" color-interpolation-filters="sRGB">
<feFlood flood-opacity="0" result="BackgroundImageFix"/>
<feColorMatrix in="SourceAlpha" type="matrix" values="0 0 0 0 0 0 0 0 0 0 0 0 0 0 0 0 0 0 127 0" result="hardAlpha"/>
<feOffset dy="29.2918"/>
<feGaussianBlur stdDeviation="29.2918"/>
<feColorMatrix type="matrix" values="0 0 0 0 0.0862745 0 0 0 0 0.0980392 0 0 0 0 0.309804 0 0 0 0.15 0"/>
<feBlend mode="normal" in2="BackgroundImageFix" result="effect1_dropShadow_61_698"/>
<feBlend mode="normal" in="SourceGraphic" in2="effect1_dropShadow_61_698" result="shape"/>
</filter>
<linearGradient id="paint0_linear_61_698" x1="204.126" y1="8.48449" x2="204.126" y2="478.861" gradientUnits="userSpaceOnUse">
<stop stop-color="#F4B8CB"/>
<stop offset="1" stop-color="#554DDE"/>
</linearGradient>
</defs>
</svg>
