<svg width="1440" height="291" viewBox="0 0 1440 291" fill="none" xmlns="http://www.w3.org/2000/svg">
<path d="M143.336 154.755C6.34141 98.9604 -77.7887 170.253 -102.729 212.874V322.772H1440V194.91C1434.45 176.734 1393.46 176.417 1373.66 178.531C1330.47 20.4468 1192.13 60.1791 1128.37 99.8058C1104.3 78.6716 1064.86 77.9671 1048.15 80.2566C1005.57 14.3179 915.214 13.6839 875.36 21.6093C761.198 -34.1851 679.691 31.1197 653.208 70.7464C507.574 5.65297 400.2 80.6089 364.717 126.223C253.024 56.9032 170.591 116.361 143.336 154.755Z" fill="#CAD0FD"/>
<path d="M143.337 218.912C6.34238 163.118 -77.7877 234.411 -102.729 277.031V322.998H1440V259.067C1434.45 240.892 1393.46 240.575 1373.66 242.688C1330.47 84.6041 1192.14 124.336 1128.37 163.963C1104.3 142.829 1064.86 142.124 1048.15 144.414C1005.57 78.4752 915.215 77.8412 875.361 85.7666C761.199 29.9723 679.692 95.277 653.208 134.904C507.575 69.8103 400.201 144.766 364.718 190.381C253.025 121.061 170.592 180.518 143.337 218.912Z" fill="#DCD9FD"/>
<path d="M233.648 271.675C106.581 261.652 9.16182 323.428 -23.6641 355.57L1440 360.472V288.563C1436.19 280.719 1405.59 279.121 1390.76 279.302C1352.64 183.423 1217.63 185.965 1154.89 199.221C1142.18 187.454 1102.53 184.876 1084.3 185.058C1049.09 148.177 966.66 157.593 929.345 167.08C834.68 123.935 746.95 170.167 714.918 198.677C703.482 191.704 685.798 195.771 678.386 198.677C574.826 154.224 484.872 199.766 452.841 228.094C349.28 193.229 263.562 242.621 233.648 271.675Z" fill="#ECDFFE"/>
<path d="M-26.6875 331.203C-153.755 321.179 -251.174 382.956 -284 415.097L1179.66 420V348.091C1175.85 340.246 1145.25 338.648 1130.42 338.83C1092.3 242.951 957.295 245.493 894.555 258.749C881.848 246.982 842.197 244.403 823.96 244.585C788.753 207.705 706.324 217.121 669.009 226.608C574.344 183.462 486.614 229.695 454.582 258.204C443.146 251.231 425.463 255.299 418.05 258.204C314.49 213.751 224.536 259.294 192.505 287.622C88.9443 252.757 3.22644 302.149 -26.6875 331.203Z" fill="#F2E4FE"/>
<path d="M790.081 275.095C713.638 197.08 604.502 242.589 559.49 275.095C444.512 263.827 406.29 302.184 401.551 322.772L1440 322.771V305.434C1417.26 247.356 1331.55 252.701 1291.54 262.634C1205.62 174.65 1072 214.416 1015.93 245.297C904.745 207.157 819.036 249.271 790.081 275.095Z" fill="#F2EAFE"/>
</svg>
