<svg width="1440" height="1024" viewBox="0 0 1440 1024" fill="none" xmlns="http://www.w3.org/2000/svg">
<path opacity="0.0571429" d="M-71.0088 919.115C-157.67 767.464 -219.391 335.207 234.572 165.515C816.796 -52.1213 972.785 -414.753 849.084 -693.088" stroke="url(#paint0_linear_61_272)" stroke-opacity="0.25" stroke-width="3"/>
<path opacity="0.114286" d="M-78.1437 930.774C-151.442 771.96 -176.277 335.909 289.06 207.634C885.871 43.1157 1071.46 -304.056 972.051 -592.366" stroke="url(#paint1_linear_61_272)" stroke-opacity="0.25" stroke-width="3"/>
<path opacity="0.171429" d="M-86.9329 941.118C-146.341 776.325 -134.23 339.699 338.787 253.694C945.447 143.391 1159.06 -185.799 1084.65 -481.942" stroke="url(#paint2_linear_61_272)" stroke-opacity="0.25" stroke-width="3"/>
<path opacity="0.228571" d="M-97.2563 950.005C-142.351 780.459 -93.5043 346.466 383.451 303.253C995.162 247.831 1235.04 -61.0068 1186.12 -362.785" stroke="url(#paint3_linear_61_272)" stroke-opacity="0.25" stroke-width="3"/>
<path opacity="0.285714" d="M-108.979 957.301C-139.443 784.263 -54.3403 356.085 422.793 355.845C1034.73 355.537 1298.92 69.2566 1275.81 -235.922" stroke="url(#paint4_linear_61_272)" stroke-opacity="0.25" stroke-width="3"/>
<path opacity="0.342857" d="M-121.957 962.888C-137.583 787.643 -16.969 368.405 456.595 410.982C1063.96 465.588 1350.33 203.886 1353.16 -102.437" stroke="url(#paint5_linear_61_272)" stroke-opacity="0.25" stroke-width="3"/>
<path opacity="0.4" d="M-136.037 966.656C-136.726 790.504 18.396 383.256 484.685 468.157C1082.72 577.046 1388.99 341.747 1417.7 36.5404" stroke="url(#paint6_linear_61_272)" stroke-opacity="0.25" stroke-width="3"/>
<path opacity="0.457143" d="M-151.056 968.512C-136.82 792.758 51.5562 400.452 506.935 526.855C1090.97 688.97 1414.73 481.69 1469.06 179.848" stroke="url(#paint7_linear_61_272)" stroke-opacity="0.25" stroke-width="3"/>
<path opacity="0.514286" d="M-166.845 968.378C-137.807 794.321 82.3306 419.79 523.262 586.548C1088.77 800.421 1427.48 622.554 1506.99 326.296" stroke="url(#paint8_linear_61_272)" stroke-opacity="0.25" stroke-width="3"/>
<path opacity="0.571429" d="M-183.228 966.189C-139.62 795.117 110.558 441.05 533.631 646.704C1076.24 910.463 1427.27 763.174 1531.32 474.675" stroke="url(#paint9_linear_61_272)" stroke-opacity="0.25" stroke-width="3"/>
<path opacity="0.628571" d="M-200.025 961.897C-142.187 795.072 136.095 464.002 538.052 706.794C1053.58 1018.18 1414.21 902.398 1542.01 623.772" stroke="url(#paint10_linear_61_272)" stroke-opacity="0.25" stroke-width="3"/>
<path opacity="0.685714" d="M-217.056 955.47C-145.431 794.121 158.818 488.403 536.579 766.286C1021.07 1122.68 1388.55 1039.09 1539.1 772.371" stroke="url(#paint11_linear_61_272)" stroke-opacity="0.25" stroke-width="3"/>
<path opacity="0.742857" d="M-234.133 946.892C-149.269 792.208 178.63 514.001 529.314 824.662C979.079 1223.09 1350.6 1172.13 1522.77 919.271" stroke="url(#paint12_linear_61_272)" stroke-opacity="0.25" stroke-width="3"/>
<path opacity="0.8" d="M-251.071 936.163C-153.611 789.28 195.452 540.536 516.404 881.411C928.035 1318.6 1300.78 1300.45 1493.26 1063.29" stroke="url(#paint13_linear_61_272)" stroke-opacity="0.25" stroke-width="3"/>
<defs>
<linearGradient id="paint0_linear_61_272" x1="201.719" y1="-10.1449" x2="521.642" y2="197.674" gradientUnits="userSpaceOnUse">
<stop stop-color="#ACA8F1"/>
<stop offset="0.286458" stop-color="white"/>
<stop offset="0.927083" stop-color="#F16EDD"/>
</linearGradient>
<linearGradient id="paint1_linear_61_272" x1="271.247" y1="29.7351" x2="572.504" y2="264.196" gradientUnits="userSpaceOnUse">
<stop stop-color="#ACA8F1"/>
<stop offset="0.286458" stop-color="white"/>
<stop offset="0.927083" stop-color="#F16EDD"/>
</linearGradient>
<linearGradient id="paint2_linear_61_272" x1="336.099" y1="74.8711" x2="616.532" y2="334.43" gradientUnits="userSpaceOnUse">
<stop stop-color="#ACA8F1"/>
<stop offset="0.286458" stop-color="white"/>
<stop offset="0.927083" stop-color="#F16EDD"/>
</linearGradient>
<linearGradient id="paint3_linear_61_272" x1="395.861" y1="124.822" x2="653.407" y2="407.77" gradientUnits="userSpaceOnUse">
<stop stop-color="#ACA8F1"/>
<stop offset="0.286458" stop-color="white"/>
<stop offset="0.927083" stop-color="#F16EDD"/>
</linearGradient>
<linearGradient id="paint4_linear_61_272" x1="450.166" y1="179.115" x2="682.865" y2="483.577" gradientUnits="userSpaceOnUse">
<stop stop-color="#ACA8F1"/>
<stop offset="0.286458" stop-color="white"/>
<stop offset="0.927083" stop-color="#F16EDD"/>
</linearGradient>
<linearGradient id="paint5_linear_61_272" x1="498.683" y1="237.246" x2="704.695" y2="561.174" gradientUnits="userSpaceOnUse">
<stop stop-color="#ACA8F1"/>
<stop offset="0.286458" stop-color="white"/>
<stop offset="0.927083" stop-color="#F16EDD"/>
</linearGradient>
<linearGradient id="paint6_linear_61_272" x1="541.135" y1="298.683" x2="718.753" y2="639.855" gradientUnits="userSpaceOnUse">
<stop stop-color="#ACA8F1"/>
<stop offset="0.286458" stop-color="white"/>
<stop offset="0.927083" stop-color="#F16EDD"/>
</linearGradient>
<linearGradient id="paint7_linear_61_272" x1="577.288" y1="362.873" x2="724.964" y2="718.895" gradientUnits="userSpaceOnUse">
<stop stop-color="#ACA8F1"/>
<stop offset="0.286458" stop-color="white"/>
<stop offset="0.927083" stop-color="#F16EDD"/>
</linearGradient>
<linearGradient id="paint8_linear_61_272" x1="606.96" y1="429.247" x2="723.326" y2="797.554" gradientUnits="userSpaceOnUse">
<stop stop-color="#ACA8F1"/>
<stop offset="0.286458" stop-color="white"/>
<stop offset="0.927083" stop-color="#F16EDD"/>
</linearGradient>
<linearGradient id="paint9_linear_61_272" x1="630.019" y1="497.218" x2="713.915" y2="875.086" gradientUnits="userSpaceOnUse">
<stop stop-color="#ACA8F1"/>
<stop offset="0.286458" stop-color="white"/>
<stop offset="0.927083" stop-color="#F16EDD"/>
</linearGradient>
<linearGradient id="paint10_linear_61_272" x1="646.382" y1="566.196" x2="696.883" y2="950.751" gradientUnits="userSpaceOnUse">
<stop stop-color="#ACA8F1"/>
<stop offset="0.286458" stop-color="white"/>
<stop offset="0.927083" stop-color="#F16EDD"/>
</linearGradient>
<linearGradient id="paint11_linear_61_272" x1="656.021" y1="635.582" x2="672.462" y2="1023.83" gradientUnits="userSpaceOnUse">
<stop stop-color="#ACA8F1"/>
<stop offset="0.286458" stop-color="white"/>
<stop offset="0.927083" stop-color="#F16EDD"/>
</linearGradient>
<linearGradient id="paint12_linear_61_272" x1="658.957" y1="704.781" x2="640.962" y2="1093.62" gradientUnits="userSpaceOnUse">
<stop stop-color="#ACA8F1"/>
<stop offset="0.286458" stop-color="white"/>
<stop offset="0.927083" stop-color="#F16EDD"/>
</linearGradient>
<linearGradient id="paint13_linear_61_272" x1="655.266" y1="773.2" x2="602.763" y2="1159.46" gradientUnits="userSpaceOnUse">
<stop stop-color="#ACA8F1"/>
<stop offset="0.286458" stop-color="white"/>
<stop offset="0.927083" stop-color="#F16EDD"/>
</linearGradient>
</defs>
</svg>
