<svg class="github-icon" width="25" height="25" viewBox="0 0 25 25" fill="none" xmlns="http://www.w3.org/2000/svg">
  <g clip-path="url(#clip0_61_337)">
  <path fill-rule="evenodd" clip-rule="evenodd" d="M12.4997 0.78125C5.88118 0.78125 0.520508 6.14193 0.520508 12.7604C0.520508 18.0612 3.94954 22.5384 8.71126 24.1256C9.31022 24.2305 9.53483 23.8711 9.53483 23.5566C9.53483 23.2721 9.51986 22.3288 9.51986 21.3255C6.51009 21.8796 5.73145 20.5918 5.49186 19.918C5.3571 19.5736 4.77311 18.5104 4.264 18.2259C3.84473 18.0013 3.24577 17.4473 4.24902 17.4323C5.19238 17.4173 5.86621 18.3008 6.09082 18.6602C7.16894 20.472 8.89095 19.9629 9.57975 19.6484C9.68457 18.8698 9.99902 18.3457 10.3434 18.0462C7.67806 17.7467 4.8929 16.7135 4.8929 12.1315C4.8929 10.8288 5.3571 9.75065 6.12077 8.91211C6.00098 8.61263 5.58171 7.38476 6.24056 5.73763C6.24056 5.73763 7.24382 5.42318 9.53483 6.96549C10.4932 6.69596 11.5114 6.5612 12.5296 6.5612C13.5479 6.5612 14.5661 6.69596 15.5244 6.96549C17.8154 5.4082 18.8187 5.73763 18.8187 5.73763C19.4775 7.38476 19.0583 8.61263 18.9385 8.91211C19.7021 9.75065 20.1663 10.8138 20.1663 12.1315C20.1663 16.7285 17.3662 17.7467 14.7008 18.0462C15.1351 18.4206 15.5094 19.1393 15.5094 20.2624C15.5094 21.8646 15.4945 23.1523 15.4945 23.5566C15.4945 23.8711 15.7191 24.2454 16.318 24.1256C21.0498 22.5384 24.4788 18.0462 24.4788 12.7604C24.4788 6.14193 19.1182 0.78125 12.4997 0.78125Z" fill="#554DDE"/>
  </g>
  <defs>
  <clipPath id="clip0_61_337">
  <rect width="25" height="25" fill="white"/>
  </clipPath>
  </defs>
</svg>