<svg width="27" height="25" viewBox="0 0 27 25" fill="none" xmlns="http://www.w3.org/2000/svg">
  <path fill-rule="evenodd" clip-rule="evenodd" d="M4.55764 7.98902C6.15802 4.42169 9.90777 2.09392 14.0706 2.0836C18.557 2.06167 22.5463 4.72936 23.9448 8.68669C25.3434 12.644 23.8317 16.987 20.2031 19.4364C16.5745 21.8858 11.6579 21.8822 8.03352 19.4274L4.80179 22.4274C4.47321 22.732 3.94092 22.732 3.61234 22.4274C3.28417 22.1223 3.28417 21.6282 3.61234 21.3232L6.74307 18.4169C3.8187 15.6668 2.95726 11.5563 4.55764 7.98902ZM6.05809 14.7596C7.40181 17.7655 10.5647 19.7232 14.0706 19.719V19.6774C18.8287 19.6717 22.6913 16.1046 22.7222 11.6878C22.7267 8.43333 20.6177 5.49719 17.3796 4.24982C14.1416 3.00245 10.4128 3.6898 7.93381 5.99104C5.45482 8.29228 4.71437 11.7537 6.05809 14.7596Z" fill="#554DDE"/>
</svg>
